  0
SECTION
  2
HEADER
  9
$ANGBASE
  50
0.0
  9
$ANGDIR
  70
1
  9
$MEASUREMENT
  70
1
  0
ENDSEC
  0
SECTION
  2
TABLES
  0
TABLE
  2
LTYPE
  70
4
  0
LTYPE
  5
40F
  2
CONTINUOUS
  70
0
  3
Solid line
  72
65
  73
0
  40
0.0
  0
LTYPE
  5
410
  2
DASHDOT
 70
0
  3
Dash Dot ____ _ ____ _
 72
65
 73
4
 40
2.0
 49
1.25
 49
-0.25
 49
0.25
 49
-0.25
  0
LTYPE
  5
411
  2
DASHED
 70
0
  3
Dashed __ __ __ __ __
 72
65
 73
2
 40
0.75
 49
0.5
 49
-0.25
  0
LTYPE
  5
43B
  2
DOTTED
 70
0
  3
Dotted .  .  .  .
 72
65
 73
2
 40
0.2
 49
0.0
 49
-0.2
  0
ENDTAB
  0
TABLE
  2
STYLE
  70
4
  0
STYLE
  2
KICAD
  70
0
  40
0
  41
1
  42
1
  50
0
  71
0
  3
isocp.shx
  0
STYLE
  2
KICADB
  70
0
  40
0
  41
1
  42
1
  50
0
  71
0
  3
isocp.shx
  0
STYLE
  2
KICADI
  70
0
  40
0
  41
1
  42
1
  50
15
  71
0
  3
isocp.shx
  0
STYLE
  2
KICADBI
  70
0
  40
0
  41
1
  42
1
  50
15
  71
0
  3
isocp.shx
  0
ENDTAB
  0
TABLE
  2
LAYER
  70
1
  0
LAYER
  2
BLACK
  70
0
  62
7
  6
CONTINUOUS
  0
ENDTAB
  0
ENDSEC
  0
SECTION
  2
ENTITIES
0
LINE
8
BLACK
6
CONTINUOUS
10
104.7381319999999931
20
-81.6854479999999938
11
105.4761570000000006
21
-81.7280179999999916
0
LINE
8
BLACK
6
CONTINUOUS
10
105.4761570000000006
20
-81.7280179999999916
11
106.2109119999999933
21
-81.809426000000002
0
LINE
8
BLACK
6
CONTINUOUS
10
106.2109119999999933
20
-81.809426000000002
11
106.9403549999999967
21
-81.9294459999999987
0
LINE
8
BLACK
6
CONTINUOUS
10
106.9403549999999967
20
-81.9294459999999987
11
107.6624580000000009
21
-82.0877440000000007
0
LINE
8
BLACK
6
CONTINUOUS
10
107.6624580000000009
20
-82.0877440000000007
11
108.3752149999999972
21
-82.2838809999999938
0
LINE
8
BLACK
6
CONTINUOUS
10
108.3752149999999972
20
-82.2838809999999938
11
109.0766440000000017
21
-82.5173109999999923
0
LINE
8
BLACK
6
CONTINUOUS
10
109.0766440000000017
20
-82.5173109999999923
11
109.7647949999999923
21
-82.787384000000003
0
LINE
8
BLACK
6
CONTINUOUS
10
109.7647949999999923
20
-82.787384000000003
11
110.4377559999999932
21
-83.0933519999999959
0
LINE
8
BLACK
6
CONTINUOUS
10
110.4377559999999932
20
-83.0933519999999959
11
111.0936549999999983
21
-83.434361999999993
0
LINE
8
BLACK
6
CONTINUOUS
10
111.0936549999999983
20
-83.434361999999993
11
111.7306699999999893
21
-83.8094669999999979
0
LINE
8
BLACK
6
CONTINUOUS
10
111.7306699999999893
20
-83.8094669999999979
11
112.3470299999999895
21
-84.2176249999999982
0
LINE
8
BLACK
6
CONTINUOUS
10
112.3470299999999895
20
-84.2176249999999982
11
112.9410209999999921
21
-84.6576999999999913
0
LINE
8
BLACK
6
CONTINUOUS
10
112.9410209999999921
20
-84.6576999999999913
11
113.5109929999999991
21
-85.128469999999993
0
LINE
8
BLACK
6
CONTINUOUS
10
113.5109929999999991
20
-85.128469999999993
11
114.0553599999999932
21
-85.628625999999997
0
LINE
8
BLACK
6
CONTINUOUS
10
114.0553599999999932
20
-85.628625999999997
11
114.5726109999999949
21
-86.1567769999999911
0
LINE
8
BLACK
6
CONTINUOUS
10
114.5726109999999949
20
-86.1567769999999911
11
115.0613060000000019
21
-86.7114559999999983
0
LINE
8
BLACK
6
CONTINUOUS
10
115.0613060000000019
20
-86.7114559999999983
11
115.5200880000000012
21
-87.2911209999999897
0
LINE
8
BLACK
6
CONTINUOUS
10
115.5200880000000012
20
-87.2911209999999897
11
115.9476820000000004
21
-87.8941599999999994
0
LINE
8
BLACK
6
CONTINUOUS
10
115.9476820000000004
20
-87.8941599999999994
11
116.342897999999991
21
-88.5188969999999955
0
LINE
8
BLACK
6
CONTINUOUS
10
116.342897999999991
20
-88.5188969999999955
11
116.7046379999999886
21
-89.1635950000000008
0
LINE
8
BLACK
6
CONTINUOUS
10
116.7046379999999886
20
-89.1635950000000008
11
117.0318970000000007
21
-89.8264629999999897
0
LINE
8
BLACK
6
CONTINUOUS
10
117.0318970000000007
20
-89.8264629999999897
11
117.3237639999999971
21
-90.5056569999999994
0
LINE
8
BLACK
6
CONTINUOUS
10
117.3237639999999971
20
-90.5056569999999994
11
117.5794289999999904
21
-91.1992910000000023
0
LINE
8
BLACK
6
CONTINUOUS
10
117.5794289999999904
20
-91.1992910000000023
11
117.7981819999999971
21
-91.9054349999999971
0
LINE
8
BLACK
6
CONTINUOUS
10
117.7981819999999971
20
-91.9054349999999971
11
117.9794119999999964
21
-92.6221269999999919
0
LINE
8
BLACK
6
CONTINUOUS
10
117.9794119999999964
20
-92.6221269999999919
11
118.1226190000000003
21
-93.3473740000000021
0
LINE
8
BLACK
6
CONTINUOUS
10
118.1226190000000003
20
-93.3473740000000021
11
118.2274010000000004
21
-94.0791609999999991
0
LINE
8
BLACK
6
CONTINUOUS
10
118.2274010000000004
20
-94.0791609999999991
11
118.2934699999999992
21
-94.8154540000000026
0
LINE
8
BLACK
6
CONTINUOUS
10
118.2934699999999992
20
-94.8154540000000026
11
118.3206409999999948
21
-95.5542059999999935
0
LINE
8
BLACK
6
CONTINUOUS
10
118.3206409999999948
20
-95.5542059999999935
11
118.3088379999999944
21
-96.2933620000000019
0
LINE
8
BLACK
6
CONTINUOUS
10
118.3088379999999944
20
-96.2933620000000019
11
118.2580949999999973
21
-97.0308699999999931
0
LINE
8
BLACK
6
CONTINUOUS
10
118.2580949999999973
20
-97.0308699999999931
11
118.1685519999999912
21
-97.7646779999999893
0
LINE
8
BLACK
6
CONTINUOUS
10
118.1685519999999912
20
-97.7646779999999893
11
118.040458000000001
21
-98.4927459999999968
0
LINE
8
BLACK
6
CONTINUOUS
10
118.040458000000001
20
-98.4927459999999968
11
117.8741699999999923
21
-99.2130519999999905
0
LINE
8
BLACK
6
CONTINUOUS
10
117.8741699999999923
20
-99.2130519999999905
11
117.6701499999999925
21
-99.9235919999999993
0
LINE
8
BLACK
6
CONTINUOUS
10
117.6701499999999925
20
-99.9235919999999993
11
117.4289639999999935
21
-100.6223919999999907
0
LINE
8
BLACK
6
CONTINUOUS
10
117.4289639999999935
20
-100.6223919999999907
11
117.1512829999999923
21
-101.307508999999996
0
LINE
8
BLACK
6
CONTINUOUS
10
117.1512829999999923
20
-101.307508999999996
11
116.8378790000000009
21
-101.9770389999999907
0
LINE
8
BLACK
6
CONTINUOUS
10
116.8378790000000009
20
-101.9770389999999907
11
116.4896239999999921
21
-102.6291200000000003
0
LINE
8
BLACK
6
CONTINUOUS
10
116.4896239999999921
20
-102.6291200000000003
11
116.1074839999999995
21
-103.2619399999999956
0
LINE
8
BLACK
6
CONTINUOUS
10
116.1074839999999995
20
-103.2619399999999956
11
115.6925239999999917
21
-103.8737409999999954
0
LINE
8
BLACK
6
CONTINUOUS
10
115.6925239999999917
20
-103.8737409999999954
11
115.2458949999999902
21
-104.4628199999999936
0
LINE
8
BLACK
6
CONTINUOUS
10
115.2458949999999902
20
-104.4628199999999936
11
114.7688389999999998
21
-105.0275419999999968
0
LINE
8
BLACK
6
CONTINUOUS
10
114.7688389999999998
20
-105.0275419999999968
11
114.262683999999993
21
-105.5663349999999951
0
LINE
8
BLACK
6
CONTINUOUS
10
114.262683999999993
20
-105.5663349999999951
11
113.728833999999992
21
-106.0777029999999996
0
LINE
8
BLACK
6
CONTINUOUS
10
113.728833999999992
20
-106.0777029999999996
11
113.168775999999994
21
-106.5602229999999935
0
LINE
8
BLACK
6
CONTINUOUS
10
113.168775999999994
20
-106.5602229999999935
11
112.5840639999999979
21
-107.0125549999999919
0
LINE
8
BLACK
6
CONTINUOUS
10
112.5840639999999979
20
-107.0125549999999919
11
111.9763249999999886
21
-107.4334419999999994
0
LINE
8
BLACK
6
CONTINUOUS
10
111.9763249999999886
20
-107.4334419999999994
11
111.3472479999999933
21
-107.8217129999999884
0
LINE
8
BLACK
6
CONTINUOUS
10
111.3472479999999933
20
-107.8217129999999884
11
110.6985820000000018
21
-108.176288999999997
0
LINE
8
BLACK
6
CONTINUOUS
10
110.6985820000000018
20
-108.176288999999997
11
110.0321299999999951
21
-108.4961839999999995
0
LINE
8
BLACK
6
CONTINUOUS
10
110.0321299999999951
20
-108.4961839999999995
11
109.3497429999999895
21
-108.780508999999995
0
LINE
8
BLACK
6
CONTINUOUS
10
109.3497429999999895
20
-108.780508999999995
11
108.6533199999999937
21
-109.0284750000000003
0
LINE
8
BLACK
6
CONTINUOUS
10
108.6533199999999937
20
-109.0284750000000003
11
107.9447959999999966
21
-109.2393900000000002
0
LINE
8
BLACK
6
CONTINUOUS
10
107.9447959999999966
20
-109.2393900000000002
11
107.2261400000000009
21
-109.4126699999999914
0
LINE
8
BLACK
6
CONTINUOUS
10
107.2261400000000009
20
-109.4126699999999914
11
106.4993509999999901
21
-109.5478329999999971
0
LINE
8
BLACK
6
CONTINUOUS
10
106.4993509999999901
20
-109.5478329999999971
11
105.7664479999999969
21
-109.6445030000000003
0
LINE
8
BLACK
6
CONTINUOUS
10
105.7664479999999969
20
-109.6445030000000003
11
105.0294679999999943
21
-109.7024109999999979
0
LINE
8
BLACK
6
CONTINUOUS
10
105.0294679999999943
20
-109.7024109999999979
11
104.2904609999999934
21
-109.7213959999999986
0
LINE
8
BLACK
6
CONTINUOUS
10
104.2904609999999934
20
-109.7213959999999986
11
103.5514809999999954
21
-109.7014049999999941
0
LINE
8
BLACK
6
CONTINUOUS
10
103.5514809999999954
20
-109.7014049999999941
11
102.8145809999999898
21
-109.6424949999999967
0
LINE
8
BLACK
6
CONTINUOUS
10
102.8145809999999898
20
-109.6424949999999967
11
102.0818099999999902
21
-109.5448279999999954
0
LINE
8
BLACK
6
CONTINUOUS
10
102.0818099999999902
20
-109.5448279999999954
11
101.355204999999998
21
-109.4086769999999973
0
LINE
8
BLACK
6
CONTINUOUS
10
101.355204999999998
20
-109.4086769999999973
11
100.6367860000000007
21
-109.2344189999999884
0
LINE
8
BLACK
6
CONTINUOUS
10
100.6367860000000007
20
-109.2344189999999884
11
99.9285489999999896
21
-109.0225389999999948
0
LINE
8
BLACK
6
CONTINUOUS
10
99.9285489999999896
20
-109.0225389999999948
11
99.2324639999999931
21
-108.773625999999993
0
LINE
8
BLACK
6
CONTINUOUS
10
99.2324639999999931
20
-108.773625999999993
11
98.5504649999999884
21
-108.4883729999999957
0
LINE
8
BLACK
6
CONTINUOUS
10
98.5504649999999884
20
-108.4883729999999957
11
97.8844489999999894
21
-108.1675709999999953
0
LINE
8
BLACK
6
CONTINUOUS
10
97.8844489999999894
20
-108.1675709999999953
11
97.2362649999999888
21
-107.8121129999999965
0
LINE
8
BLACK
6
CONTINUOUS
10
97.2362649999999888
20
-107.8121129999999965
11
96.6077169999999938
21
-107.422986999999992
0
LINE
8
BLACK
6
CONTINUOUS
10
96.6077169999999938
20
-107.422986999999992
11
96.000551999999999
21
-107.0012739999999951
0
LINE
8
BLACK
6
CONTINUOUS
10
96.000551999999999
20
-107.0012739999999951
11
95.4164559999999966
21
-106.5481459999999885
0
LINE
8
BLACK
6
CONTINUOUS
10
95.4164559999999966
20
-106.5481459999999885
11
94.8570539999999909
21
-106.064864
0
LINE
8
BLACK
6
CONTINUOUS
10
94.8570539999999909
20
-106.064864
11
94.3239009999999922
21
-105.5527709999999928
0
LINE
8
BLACK
6
CONTINUOUS
10
94.3239009999999922
20
-105.5527709999999928
11
93.8184789999999964
21
-105.0132890000000003
0
LINE
8
BLACK
6
CONTINUOUS
10
93.8184789999999964
20
-105.0132890000000003
11
93.3421929999999946
21
-104.4479189999999988
0
LINE
8
BLACK
6
CONTINUOUS
10
93.3421929999999946
20
-104.4479189999999988
11
92.8963660000000004
21
-103.8582329999999985
0
LINE
8
BLACK
6
CONTINUOUS
10
92.8963660000000004
20
-103.8582329999999985
11
92.4822379999999953
21
-103.2458680000000015
0
LINE
8
BLACK
6
CONTINUOUS
10
92.4822379999999953
20
-103.2458680000000015
11
92.1009600000000006
21
-102.612528999999995
0
LINE
8
BLACK
6
CONTINUOUS
10
92.1009600000000006
20
-102.612528999999995
11
91.7535919999999976
21
-101.9599739999999883
0
LINE
8
BLACK
6
CONTINUOUS
10
91.7535919999999976
20
-101.9599739999999883
11
91.4410989999999941
21
-101.2900190000000009
0
LINE
8
BLACK
6
CONTINUOUS
10
91.4410989999999941
20
-101.2900190000000009
11
91.1643509999999964
21
-100.6045239999999978
0
LINE
8
BLACK
6
CONTINUOUS
10
91.1643509999999964
20
-100.6045239999999978
11
90.9241159999999979
21
-99.9053969999999936
0
LINE
8
BLACK
6
CONTINUOUS
10
90.9241159999999979
20
-99.9053969999999936
11
90.7318399999999912
21
-99.2323059999999941
0
LINE
8
BLACK
6
CONTINUOUS
10
90.7318399999999912
20
-99.2323059999999941
11
87.2002499999999969
21
-99.2499990000000025
0
LINE
8
BLACK
6
CONTINUOUS
10
87.2002499999999969
20
-99.2499990000000025
11
87.2001249999999999
21
-99.2499479999999892
0
LINE
8
BLACK
6
CONTINUOUS
10
87.2001249999999999
20
-99.2499479999999892
11
87.2000000000000028
21
-99.25
0
LINE
8
BLACK
6
CONTINUOUS
10
87.2000000000000028
20
-99.25
11
87.1824259999999924
21
-99.2427199999999914
0
LINE
8
BLACK
6
CONTINUOUS
10
87.1824259999999924
20
-99.2427199999999914
11
87.1648229999999984
21
-99.2355319999999921
0
LINE
8
BLACK
6
CONTINUOUS
10
87.1648229999999984
20
-99.2355319999999921
11
87.1647699999999901
21
-99.2354059999999976
0
LINE
8
BLACK
6
CONTINUOUS
10
87.1647699999999901
20
-99.2354059999999976
11
87.164644999999993
21
-99.2353549999999984
0
LINE
8
BLACK
6
CONTINUOUS
10
87.164644999999993
20
-99.2353549999999984
11
87.1573360000000008
21
-99.2177099999999967
0
LINE
8
BLACK
6
CONTINUOUS
10
87.1573360000000008
20
-99.2177099999999967
11
87.1500010000000032
21
-99.2002499999999969
0
LINE
8
BLACK
6
CONTINUOUS
10
87.1500010000000032
20
-99.2002499999999969
11
87.1500509999999906
21
-99.2001249999999999
0
LINE
8
BLACK
6
CONTINUOUS
10
87.1500509999999906
20
-99.2001249999999999
11
87.1499999999999915
21
-99.1999999999999886
0
LINE
8
BLACK
6
CONTINUOUS
10
87.1499999999999915
20
-99.1999999999999886
11
87.1499999999999915
21
-92.5999999999999943
0
LINE
8
BLACK
6
CONTINUOUS
10
87.1499999999999915
20
-92.5999999999999943
11
87.1570689999999928
21
-92.582932999999997
0
LINE
8
BLACK
6
CONTINUOUS
10
87.1570689999999928
20
-92.582932999999997
11
87.1636499999999899
21
-92.5656689999999998
0
LINE
8
BLACK
6
CONTINUOUS
10
87.1636499999999899
20
-92.5656689999999998
11
87.1643499999999989
21
-92.5653539999999992
0
LINE
8
BLACK
6
CONTINUOUS
10
87.1643499999999989
20
-92.5653539999999992
11
87.164644999999993
21
-92.5646449999999987
0
LINE
8
BLACK
6
CONTINUOUS
10
87.164644999999993
20
-92.5646449999999987
11
87.1817059999999913
21
-92.5575769999999949
0
LINE
8
BLACK
6
CONTINUOUS
10
87.1817059999999913
20
-92.5575769999999949
11
87.1985719999999986
21
-92.5500199999999893
0
LINE
8
BLACK
6
CONTINUOUS
10
87.1985719999999986
20
-92.5500199999999893
11
90.6611919999999998
21
-92.4510870000000011
0
LINE
8
BLACK
6
CONTINUOUS
10
90.6611919999999998
20
-92.4510870000000011
11
90.8395579999999967
21
-91.7736620000000016
0
LINE
8
BLACK
6
CONTINUOUS
10
90.8395579999999967
20
-91.7736620000000016
11
91.0652029999999968
21
-91.0696899999999943
0
LINE
8
BLACK
6
CONTINUOUS
10
91.0652029999999968
20
-91.0696899999999943
11
91.3276359999999983
21
-90.378588999999991
0
LINE
8
BLACK
6
CONTINUOUS
10
91.3276359999999983
20
-90.378588999999991
11
91.6261299999999892
21
-89.7022800000000018
0
LINE
8
BLACK
6
CONTINUOUS
10
91.6261299999999892
20
-89.7022800000000018
11
91.9598529999999954
21
-89.0426429999999982
0
LINE
8
BLACK
6
CONTINUOUS
10
91.9598529999999954
20
-89.0426429999999982
11
92.3278779999999983
21
-88.4015119999999968
0
LINE
8
BLACK
6
CONTINUOUS
10
92.3278779999999983
20
-88.4015119999999968
11
92.7291819999999944
21
-87.780668999999989
0
LINE
8
BLACK
6
CONTINUOUS
10
92.7291819999999944
20
-87.780668999999989
11
93.1626499999999993
21
-87.1818389999999965
0
LINE
8
BLACK
6
CONTINUOUS
10
93.1626499999999993
20
-87.1818389999999965
11
93.6270769999999999
21
-86.6066869999999938
0
LINE
8
BLACK
6
CONTINUOUS
10
93.6270769999999999
20
-86.6066869999999938
11
94.1211720000000014
21
-86.0568119999999936
0
LINE
8
BLACK
6
CONTINUOUS
10
94.1211720000000014
20
-86.0568119999999936
11
94.6435599999999937
21
-85.5337419999999895
0
LINE
8
BLACK
6
CONTINUOUS
10
94.6435599999999937
20
-85.5337419999999895
11
95.1927909999999997
21
-85.0389309999999909
0
LINE
8
BLACK
6
CONTINUOUS
10
95.1927909999999997
20
-85.0389309999999909
11
95.7673379999999952
21
-84.573756000000003
0
LINE
8
BLACK
6
CONTINUOUS
10
95.7673379999999952
20
-84.573756000000003
11
96.365602999999993
21
-84.1395079999999922
0
LINE
8
BLACK
6
CONTINUOUS
10
96.365602999999993
20
-84.1395079999999922
11
96.9859229999999997
21
-83.7373949999999923
0
LINE
8
BLACK
6
CONTINUOUS
10
96.9859229999999997
20
-83.7373949999999923
11
97.6265739999999909
21
-83.3685349999999943
0
LINE
8
BLACK
6
CONTINUOUS
10
97.6265739999999909
20
-83.3685349999999943
11
98.2857759999999985
21
-83.0339529999999968
0
LINE
8
BLACK
6
CONTINUOUS
10
98.2857759999999985
20
-83.0339529999999968
11
98.9616959999999892
21
-82.7345789999999965
0
LINE
8
BLACK
6
CONTINUOUS
10
98.9616959999999892
20
-82.7345789999999965
11
99.6524539999999917
21
-82.4712449999999961
0
LINE
8
BLACK
6
CONTINUOUS
10
99.6524539999999917
20
-82.4712449999999961
11
100.3561309999999906
21
-82.2446839999999924
0
LINE
8
BLACK
6
CONTINUOUS
10
100.3561309999999906
20
-82.2446839999999924
11
101.070771999999991
21
-82.0555239999999912
0
LINE
8
BLACK
6
CONTINUOUS
10
101.070771999999991
20
-82.0555239999999912
11
101.7943879999999979
21
-81.9042929999999956
0
LINE
8
BLACK
6
CONTINUOUS
10
101.7943879999999979
20
-81.9042929999999956
11
102.5249699999999962
21
-81.7914090000000016
0
LINE
8
BLACK
6
CONTINUOUS
10
102.5249699999999962
20
-81.7914090000000016
11
103.2604849999999885
21
-81.7171879999999931
0
LINE
8
BLACK
6
CONTINUOUS
10
103.2604849999999885
20
-81.7171879999999931
11
103.9988899999999887
21
-81.6818349999999924
0
LINE
8
BLACK
6
CONTINUOUS
10
103.9988899999999887
20
-81.6818349999999924
11
104.7381319999999931
21
-81.6854479999999938
0
LINE
8
BLACK
6
CONTINUOUS
10
103.7989099999999922
20
-81.7826840000000033
11
103.059387000000001
21
-81.8290349999999904
0
LINE
8
BLACK
6
CONTINUOUS
10
103.059387000000001
20
-81.8290349999999904
11
102.3233769999999936
21
-81.9146549999999962
0
LINE
8
BLACK
6
CONTINUOUS
10
102.3233769999999936
20
-81.9146549999999962
11
101.5929629999999975
21
-82.0392999999999972
0
LINE
8
BLACK
6
CONTINUOUS
10
101.5929629999999975
20
-82.0392999999999972
11
100.8702119999999951
21
-82.2026180000000011
0
LINE
8
BLACK
6
CONTINUOUS
10
100.8702119999999951
20
-82.2026180000000011
11
100.1571709999999911
21
-82.4041459999999972
0
LINE
8
BLACK
6
CONTINUOUS
10
100.1571709999999911
20
-82.4041459999999972
11
99.4558569999999946
21
-82.6433139999999895
0
LINE
8
BLACK
6
CONTINUOUS
10
99.4558569999999946
20
-82.6433139999999895
11
98.7682579999999888
21
-82.9194439999999986
0
LINE
8
BLACK
6
CONTINUOUS
10
98.7682579999999888
20
-82.9194439999999986
11
98.0963179999999966
21
-83.2317559999999901
0
LINE
8
BLACK
6
CONTINUOUS
10
98.0963179999999966
20
-83.2317559999999901
11
97.4419409999999999
21
-83.5793649999999957
0
LINE
8
BLACK
6
CONTINUOUS
10
97.4419409999999999
20
-83.5793649999999957
11
96.8069780000000009
21
-83.9612860000000012
0
LINE
8
BLACK
6
CONTINUOUS
10
96.8069780000000009
20
-83.9612860000000012
11
96.1932279999999906
21
-84.3764389999999906
0
LINE
8
BLACK
6
CONTINUOUS
10
96.1932279999999906
20
-84.3764389999999906
11
95.6024269999999916
21
-84.8236490000000032
0
LINE
8
BLACK
6
CONTINUOUS
10
95.6024269999999916
20
-84.8236490000000032
11
95.036248999999998
21
-85.3016489999999976
0
LINE
8
BLACK
6
CONTINUOUS
10
95.036248999999998
20
-85.3016489999999976
11
94.496296000000001
21
-85.8090859999999935
0
LINE
8
BLACK
6
CONTINUOUS
10
94.496296000000001
20
-85.8090859999999935
11
93.9840969999999913
21
-86.3445239999999927
0
LINE
8
BLACK
6
CONTINUOUS
10
93.9840969999999913
20
-86.3445239999999927
11
93.5011019999999888
21
-86.906447
0
LINE
8
BLACK
6
CONTINUOUS
10
93.5011019999999888
20
-86.906447
11
93.0486779999999953
21
-87.4932629999999989
0
LINE
8
BLACK
6
CONTINUOUS
10
93.0486779999999953
20
-87.4932629999999989
11
92.6281049999999908
21
-88.103313
0
LINE
8
BLACK
6
CONTINUOUS
10
92.6281049999999908
20
-88.103313
11
92.2405759999999901
21
-88.7348679999999916
0
LINE
8
BLACK
6
CONTINUOUS
10
92.2405759999999901
20
-88.7348679999999916
11
91.8871850000000023
21
-89.386140999999995
0
LINE
8
BLACK
6
CONTINUOUS
10
91.8871850000000023
20
-89.386140999999995
11
91.5689349999999962
21
-90.0552890000000019
0
LINE
8
BLACK
6
CONTINUOUS
10
91.5689349999999962
20
-90.0552890000000019
11
91.2867260000000016
21
-90.7404159999999962
0
LINE
8
BLACK
6
CONTINUOUS
10
91.2867260000000016
20
-90.7404159999999962
11
91.0413559999999933
21
-91.4395839999999964
0
LINE
8
BLACK
6
CONTINUOUS
10
91.0413559999999933
20
-91.4395839999999964
11
90.8335209999999904
21
-92.1508129999999994
0
LINE
8
BLACK
6
CONTINUOUS
10
90.8335209999999904
20
-92.1508129999999994
11
90.7486710000000016
21
-92.5114519999999914
0
LINE
8
BLACK
6
CONTINUOUS
10
90.7486710000000016
20
-92.5114519999999914
11
90.7389819999999929
21
-92.5274229999999989
0
LINE
8
BLACK
6
CONTINUOUS
10
90.7389819999999929
20
-92.5274229999999989
11
90.7363500000000016
21
-92.5343309999999946
0
LINE
8
BLACK
6
CONTINUOUS
10
90.7363500000000016
20
-92.5343309999999946
11
90.7342110000000019
21
-92.5352889999999917
0
LINE
8
BLACK
6
CONTINUOUS
10
90.7342110000000019
20
-92.5352889999999917
11
90.7326439999999934
21
-92.5378729999999905
0
LINE
8
BLACK
6
CONTINUOUS
10
90.7326439999999934
20
-92.5378729999999905
11
90.704149000000001
21
-92.5498279999999909
0
LINE
8
BLACK
6
CONTINUOUS
10
90.704149000000001
20
-92.5498279999999909
11
90.7025869999999941
21
-92.5494599999999963
0
LINE
8
BLACK
6
CONTINUOUS
10
90.7025869999999941
20
-92.5494599999999963
11
90.7014279999999928
21
-92.5499799999999908
0
LINE
8
BLACK
6
CONTINUOUS
10
90.7014279999999928
20
-92.5499799999999908
11
87.25
21
-92.6485919999999936
0
LINE
8
BLACK
6
CONTINUOUS
10
87.25
20
-92.6485919999999936
11
87.25
21
-99.1497489999999999
0
LINE
8
BLACK
6
CONTINUOUS
10
87.25
20
-99.1497489999999999
11
90.7692349999999948
21
-99.1321189999999888
0
LINE
8
BLACK
6
CONTINUOUS
10
90.7692349999999948
20
-99.1321189999999888
11
90.7706779999999895
21
-99.1327079999999938
0
LINE
8
BLACK
6
CONTINUOUS
10
90.7706779999999895
20
-99.1327079999999938
11
90.7725969999999904
21
-99.1322150000000022
0
LINE
8
BLACK
6
CONTINUOUS
10
90.7725969999999904
20
-99.1322150000000022
11
90.8013349999999946
21
-99.1435749999999985
0
LINE
8
BLACK
6
CONTINUOUS
10
90.8013349999999946
20
-99.1435749999999985
11
90.8027519999999981
21
-99.1458049999999957
0
LINE
8
BLACK
6
CONTINUOUS
10
90.8027519999999981
20
-99.1458049999999957
11
90.8046629999999908
21
-99.1465859999999992
0
LINE
8
BLACK
6
CONTINUOUS
10
90.8046629999999908
20
-99.1465859999999992
11
90.807423
21
-99.1531569999999931
0
LINE
8
BLACK
6
CONTINUOUS
10
90.807423
20
-99.1531569999999931
11
90.8179069999999911
21
-99.1696559999999891
0
LINE
8
BLACK
6
CONTINUOUS
10
90.8179069999999911
20
-99.1696559999999891
11
90.9102379999999926
21
-99.5284539999999964
0
LINE
8
BLACK
6
CONTINUOUS
10
90.9102379999999926
20
-99.5284539999999964
11
91.1328180000000003
21
-100.2352059999999909
0
LINE
8
BLACK
6
CONTINUOUS
10
91.1328180000000003
20
-100.2352059999999909
11
91.3926739999999995
21
-100.929120999999995
0
LINE
8
BLACK
6
CONTINUOUS
10
91.3926739999999995
20
-100.929120999999995
11
91.6890689999999893
21
-101.6082309999999893
0
LINE
8
BLACK
6
CONTINUOUS
10
91.6890689999999893
20
-101.6082309999999893
11
92.0211649999999963
21
-102.2706159999999898
0
LINE
8
BLACK
6
CONTINUOUS
10
92.0211649999999963
20
-102.2706159999999898
11
92.3880219999999923
21
-102.9144000000000005
0
LINE
8
BLACK
6
CONTINUOUS
10
92.3880219999999923
20
-102.9144000000000005
11
92.7886009999999999
21
-103.5377599999999916
0
LINE
8
BLACK
6
CONTINUOUS
10
92.7886009999999999
20
-103.5377599999999916
11
93.2217689999999948
21
-104.1389319999999969
0
LINE
8
BLACK
6
CONTINUOUS
10
93.2217689999999948
20
-104.1389319999999969
11
93.6862979999999936
21
-104.7162129999999962
0
LINE
8
BLACK
6
CONTINUOUS
10
93.6862979999999936
20
-104.7162129999999962
11
94.1808739999999887
21
-105.2679709999999886
0
LINE
8
BLACK
6
CONTINUOUS
10
94.1808739999999887
20
-105.2679709999999886
11
94.7040969999999902
21
-105.7926420000000007
0
LINE
8
BLACK
6
CONTINUOUS
10
94.7040969999999902
20
-105.7926420000000007
11
95.2544850000000025
21
-106.2887410000000017
0
LINE
8
BLACK
6
CONTINUOUS
10
95.2544850000000025
20
-106.2887410000000017
11
95.8304799999999943
21
-106.7548639999999978
0
LINE
8
BLACK
6
CONTINUOUS
10
95.8304799999999943
20
-106.7548639999999978
11
96.430453
21
-107.1896909999999963
0
LINE
8
BLACK
6
CONTINUOUS
10
96.430453
20
-107.1896909999999963
11
97.0527029999999939
21
-107.5919919999999905
0
LINE
8
BLACK
6
CONTINUOUS
10
97.0527029999999939
20
-107.5919919999999905
11
97.6954709999999977
21
-107.9606269999999881
0
LINE
8
BLACK
6
CONTINUOUS
10
97.6954709999999977
20
-107.9606269999999881
11
98.3569349999999929
21
-108.2945529999999934
0
LINE
8
BLACK
6
CONTINUOUS
10
98.3569349999999929
20
-108.2945529999999934
11
99.0352239999999995
21
-108.5928239999999931
0
LINE
8
BLACK
6
CONTINUOUS
10
99.0352239999999995
20
-108.5928239999999931
11
99.7284169999999932
21
-108.8545960000000008
0
LINE
8
BLACK
6
CONTINUOUS
10
99.7284169999999932
20
-108.8545960000000008
11
100.4345519999999965
21
-109.0791289999999947
0
LINE
8
BLACK
6
CONTINUOUS
10
100.4345519999999965
20
-109.0791289999999947
11
101.1516299999999973
21
-109.2657859999999914
0
LINE
8
BLACK
6
CONTINUOUS
10
101.1516299999999973
20
-109.2657859999999914
11
101.8776209999999907
21
-109.4140389999999883
0
LINE
8
BLACK
6
CONTINUOUS
10
101.8776209999999907
20
-109.4140389999999883
11
102.6104689999999948
21
-109.523467999999994
0
LINE
8
BLACK
6
CONTINUOUS
10
102.6104689999999948
20
-109.523467999999994
11
103.3481000000000023
21
-109.5937639999999931
0
LINE
8
BLACK
6
CONTINUOUS
10
103.3481000000000023
20
-109.5937639999999931
11
104.0884269999999958
21
-109.6247269999999929
0
LINE
8
BLACK
6
CONTINUOUS
10
104.0884269999999958
20
-109.6247269999999929
11
104.8293520000000001
21
-109.6162700000000001
0
LINE
8
BLACK
6
CONTINUOUS
10
104.8293520000000001
20
-109.6162700000000001
11
105.5687779999999947
21
-109.5684169999999966
0
LINE
8
BLACK
6
CONTINUOUS
10
105.5687779999999947
20
-109.5684169999999966
11
106.3046129999999891
21
-109.4813029999999969
0
LINE
8
BLACK
6
CONTINUOUS
10
106.3046129999999891
20
-109.4813029999999969
11
107.0347730000000013
21
-109.3551749999999885
0
LINE
8
BLACK
6
CONTINUOUS
10
107.0347730000000013
20
-109.3551749999999885
11
107.7571909999999917
21
-109.1903899999999936
0
LINE
8
BLACK
6
CONTINUOUS
10
107.7571909999999917
20
-109.1903899999999936
11
108.469820999999996
21
-108.9874140000000011
0
LINE
8
BLACK
6
CONTINUOUS
10
108.469820999999996
20
-108.9874140000000011
11
109.1706469999999882
21
-108.7468219999999945
0
LINE
8
BLACK
6
CONTINUOUS
10
109.1706469999999882
20
-108.7468219999999945
11
109.8576849999999894
21
-108.4692959999999999
0
LINE
8
BLACK
6
CONTINUOUS
10
109.8576849999999894
20
-108.4692959999999999
11
110.5289889999999957
21
-108.155619999999999
0
LINE
8
BLACK
6
CONTINUOUS
10
110.5289889999999957
20
-108.155619999999999
11
111.182659000000001
21
-107.8066829999999925
0
LINE
8
BLACK
6
CONTINUOUS
10
111.182659000000001
20
-107.8066829999999925
11
111.8168450000000007
21
-107.4234730000000013
0
LINE
8
BLACK
6
CONTINUOUS
10
111.8168450000000007
20
-107.4234730000000013
11
112.429750999999996
21
-107.0070739999999887
0
LINE
8
BLACK
6
CONTINUOUS
10
112.429750999999996
20
-107.0070739999999887
11
113.0196419999999904
21
-106.5586659999999881
0
LINE
8
BLACK
6
CONTINUOUS
10
113.0196419999999904
20
-106.5586659999999881
11
113.5848479999999938
21
-106.0795169999999956
0
LINE
8
BLACK
6
CONTINUOUS
10
113.5848479999999938
20
-106.0795169999999956
11
114.1237689999999958
21
-105.5709849999999932
0
LINE
8
BLACK
6
CONTINUOUS
10
114.1237689999999958
20
-105.5709849999999932
11
114.6348799999999954
21
-105.0345079999999882
0
LINE
8
BLACK
6
CONTINUOUS
10
114.6348799999999954
20
-105.0345079999999882
11
115.1167329999999964
21
-104.4716059999999942
0
LINE
8
BLACK
6
CONTINUOUS
10
115.1167329999999964
20
-104.4716059999999942
11
115.5679650000000009
21
-103.8838709999999992
0
LINE
8
BLACK
6
CONTINUOUS
10
115.5679650000000009
20
-103.8838709999999992
11
115.9872969999999981
21
-103.2729689999999891
0
LINE
8
BLACK
6
CONTINUOUS
10
115.9872969999999981
20
-103.2729689999999891
11
116.3735439999999954
21
-102.6406279999999924
0
LINE
8
BLACK
6
CONTINUOUS
10
116.3735439999999954
20
-102.6406279999999924
11
116.7256110000000007
21
-101.9886379999999946
0
LINE
8
BLACK
6
CONTINUOUS
10
116.7256110000000007
20
-101.9886379999999946
11
117.0425019999999989
21
-101.3188459999999935
0
LINE
8
BLACK
6
CONTINUOUS
10
117.0425019999999989
20
-101.3188459999999935
11
117.3233189999999979
21
-100.6331469999999939
0
LINE
8
BLACK
6
CONTINUOUS
10
117.3233189999999979
20
-100.6331469999999939
11
117.5672679999999986
21
-99.9334829999999954
0
LINE
8
BLACK
6
CONTINUOUS
10
117.5672679999999986
20
-99.9334829999999954
11
117.7736579999999975
21
-99.2218329999999895
0
LINE
8
BLACK
6
CONTINUOUS
10
117.7736579999999975
20
-99.2218329999999895
11
117.9419049999999913
21
-98.5002139999999997
0
LINE
8
BLACK
6
CONTINUOUS
10
117.9419049999999913
20
-98.5002139999999997
11
118.0715329999999881
21
-97.7706669999999889
0
LINE
8
BLACK
6
CONTINUOUS
10
118.0715329999999881
20
-97.7706669999999889
11
118.1621739999999932
21
-97.0352589999999964
0
LINE
8
BLACK
6
CONTINUOUS
10
118.1621739999999932
20
-97.0352589999999964
11
118.2135719999999992
21
-96.2960700000000003
0
LINE
8
BLACK
6
CONTINUOUS
10
118.2135719999999992
20
-96.2960700000000003
11
118.2255809999999911
21
-95.5551940000000002
0
LINE
8
BLACK
6
CONTINUOUS
10
118.2255809999999911
20
-95.5551940000000002
11
118.1981679999999955
21
-94.8147280000000023
0
LINE
8
BLACK
6
CONTINUOUS
10
118.1981679999999955
20
-94.8147280000000023
11
118.1314099999999883
21
-94.0767680000000013
0
LINE
8
BLACK
6
CONTINUOUS
10
118.1314099999999883
20
-94.0767680000000013
11
118.0254959999999897
21
-93.343402999999995
0
LINE
8
BLACK
6
CONTINUOUS
10
118.0254959999999897
20
-93.343402999999995
11
117.8807249999999982
21
-92.6167099999999976
0
LINE
8
BLACK
6
CONTINUOUS
10
117.8807249999999982
20
-92.6167099999999976
11
117.6975089999999966
21
-91.898744999999991
0
LINE
8
BLACK
6
CONTINUOUS
10
117.6975089999999966
20
-91.898744999999991
11
117.4763650000000013
21
-91.1915419999999983
0
LINE
8
BLACK
6
CONTINUOUS
10
117.4763650000000013
20
-91.1915419999999983
11
117.2179189999999949
21
-90.4971019999999982
0
LINE
8
BLACK
6
CONTINUOUS
10
117.2179189999999949
20
-90.4971019999999982
11
116.9229029999999909
21
-89.817389999999989
0
LINE
8
BLACK
6
CONTINUOUS
10
116.9229029999999909
20
-89.817389999999989
11
116.5921529999999962
21
-89.1543329999999941
0
LINE
8
BLACK
6
CONTINUOUS
10
116.5921529999999962
20
-89.1543329999999941
11
116.2266039999999947
21
-88.5098050000000001
0
LINE
8
BLACK
6
CONTINUOUS
10
116.2266039999999947
20
-88.5098050000000001
11
115.8272909999999882
21
-87.8856329999999986
0
LINE
8
BLACK
6
CONTINUOUS
10
115.8272909999999882
20
-87.8856329999999986
11
115.3953459999999893
21
-87.283582999999993
0
LINE
8
BLACK
6
CONTINUOUS
10
115.3953459999999893
20
-87.283582999999993
11
114.931989999999999
21
-86.7053590000000014
0
LINE
8
BLACK
6
CONTINUOUS
10
114.931989999999999
20
-86.7053590000000014
11
114.4385350000000017
21
-86.1525979999999976
0
LINE
8
BLACK
6
CONTINUOUS
10
114.4385350000000017
20
-86.1525979999999976
11
113.9163789999999921
21
-85.6268659999999926
0
LINE
8
BLACK
6
CONTINUOUS
10
113.9163789999999921
20
-85.6268659999999926
11
113.3669989999999927
21
-85.129649999999998
0
LINE
8
BLACK
6
CONTINUOUS
10
113.3669989999999927
20
-85.129649999999998
11
112.7919519999999949
21
-84.6623579999999976
0
LINE
8
BLACK
6
CONTINUOUS
10
112.7919519999999949
20
-84.6623579999999976
11
112.1928640000000001
21
-84.2263129999999904
0
LINE
8
BLACK
6
CONTINUOUS
10
112.1928640000000001
20
-84.2263129999999904
11
111.5714309999999898
21
-83.8227499999999992
0
LINE
8
BLACK
6
CONTINUOUS
10
111.5714309999999898
20
-83.8227499999999992
11
110.9294139999999942
21
-83.452810999999997
0
LINE
8
BLACK
6
CONTINUOUS
10
110.9294139999999942
20
-83.452810999999997
11
110.26862899999999
21
-83.1175420000000003
0
LINE
8
BLACK
6
CONTINUOUS
10
110.26862899999999
20
-83.1175420000000003
11
109.5909469999999999
21
-82.8178939999999955
0
LINE
8
BLACK
6
CONTINUOUS
10
109.5909469999999999
20
-82.8178939999999955
11
108.8982869999999963
21
-82.5547139999999899
0
LINE
8
BLACK
6
CONTINUOUS
10
108.8982869999999963
20
-82.5547139999999899
11
108.1926100000000019
21
-82.3287479999999903
0
LINE
8
BLACK
6
CONTINUOUS
10
108.1926100000000019
20
-82.3287479999999903
11
107.4759119999999939
21
-82.1406360000000006
0
LINE
8
BLACK
6
CONTINUOUS
10
107.4759119999999939
20
-82.1406360000000006
11
106.7502239999999887
21
-81.990909000000002
0
LINE
8
BLACK
6
CONTINUOUS
10
106.7502239999999887
20
-81.990909000000002
11
106.0175989999999899
21
-81.8799920000000014
0
LINE
8
BLACK
6
CONTINUOUS
10
106.0175989999999899
20
-81.8799920000000014
11
105.2801119999999884
21
-81.8081979999999902
0
LINE
8
BLACK
6
CONTINUOUS
10
105.2801119999999884
20
-81.8081979999999902
11
104.5398500000000013
21
-81.7757319999999908
0
LINE
8
BLACK
6
CONTINUOUS
10
104.5398500000000013
20
-81.7757319999999908
11
103.7989099999999922
21
-81.7826840000000033
  0
ENDSEC
  0
EOF
